<svg width="19" height="19" viewBox="0 0 19 19" fill="none" xmlns="http://www.w3.org/2000/svg">
    <path d="M9.28223 0.734375C7.54855 0.734375 5.85381 1.24847 4.41231 2.21165C2.97081 3.17483 1.8473 4.54383 1.18385 6.14554C0.520399 7.74725 0.346811 9.50972 0.685035 11.2101C1.02326 12.9105 1.8581 14.4723 3.084 15.6982C4.30989 16.9241 5.87178 17.759 7.57214 18.0972C9.27251 18.4354 11.035 18.2618 12.6367 17.5984C14.2384 16.9349 15.6074 15.8114 16.5706 14.3699C17.5338 12.9284 18.0479 11.2337 18.0479 9.5C18.0451 7.17605 17.1207 4.94806 15.4774 3.30478C13.8342 1.6615 11.6062 0.737104 9.28223 0.734375ZM9.28223 17.2344C7.75252 17.2344 6.25715 16.7808 4.98524 15.9309C3.71333 15.081 2.722 13.8731 2.1366 12.4598C1.5512 11.0465 1.39804 9.49142 1.69647 7.9911C1.9949 6.49078 2.73153 5.11264 3.8132 4.03097C4.89487 2.9493 6.27301 2.21267 7.77333 1.91424C9.27365 1.61581 10.8288 1.76897 12.242 2.35437C13.6553 2.93977 14.8633 3.9311 15.7131 5.20301C16.563 6.47492 17.0166 7.97029 17.0166 9.5C17.0143 11.5506 16.1987 13.5165 14.7487 14.9665C13.2988 16.4165 11.3328 17.2321 9.28223 17.2344ZM14.6104 9.5C14.6104 9.63675 14.556 9.7679 14.4593 9.8646C14.3626 9.9613 14.2315 10.0156 14.0947 10.0156H9.28223C9.14548 10.0156 9.01433 9.9613 8.91763 9.8646C8.82093 9.7679 8.76661 9.63675 8.76661 9.5V4.6875C8.76661 4.55075 8.82093 4.4196 8.91763 4.3229C9.01433 4.2262 9.14548 4.17188 9.28223 4.17188C9.41898 4.17188 9.55013 4.2262 9.64683 4.3229C9.74353 4.4196 9.79786 4.55075 9.79786 4.6875V8.98438H14.0947C14.2315 8.98438 14.3626 9.0387 14.4593 9.1354C14.556 9.2321 14.6104 9.36325 14.6104 9.5Z" fill="#5D5A5A"/>
</svg>
