<svg width="20" height="20" viewBox="0 0 20 20" fill="none" xmlns="http://www.w3.org/2000/svg">
<path d="M9.70606 0.4375C7.81477 0.4375 5.96596 0.998331 4.39342 2.04907C2.82087 3.09981 1.59522 4.59327 0.871461 6.34059C0.147698 8.08791 -0.0416714 10.0106 0.3273 11.8656C0.696271 13.7205 1.60701 15.4244 2.94435 16.7617C4.28169 18.099 5.98556 19.0098 7.84051 19.3788C9.69545 19.7477 11.6182 19.5584 13.3655 18.8346C15.1128 18.1108 16.6062 16.8852 17.657 15.3126C18.7077 13.7401 19.2686 11.8913 19.2686 10C19.2656 7.46478 18.2572 5.03425 16.4645 3.24158C14.6718 1.44891 12.2413 0.440477 9.70606 0.4375ZM10.2686 18.4188V12.0625H12.7061C12.8552 12.0625 12.9983 12.0032 13.1038 11.8977C13.2093 11.7923 13.2686 11.6492 13.2686 11.5C13.2686 11.3508 13.2093 11.2077 13.1038 11.1023C12.9983 10.9968 12.8552 10.9375 12.7061 10.9375H10.2686V8.5C10.2686 8.05245 10.4463 7.62323 10.7628 7.30676C11.0793 6.99029 11.5085 6.8125 11.9561 6.8125H13.4561C13.6052 6.8125 13.7483 6.75324 13.8538 6.64775C13.9593 6.54226 14.0186 6.39918 14.0186 6.25C14.0186 6.10082 13.9593 5.95774 13.8538 5.85225C13.7483 5.74676 13.6052 5.6875 13.4561 5.6875H11.9561C11.2101 5.6875 10.4948 5.98382 9.96732 6.51126C9.43987 7.03871 9.14356 7.75408 9.14356 8.5V10.9375H6.70606C6.55687 10.9375 6.4138 10.9968 6.30831 11.1023C6.20282 11.2077 6.14356 11.3508 6.14356 11.5C6.14356 11.6492 6.20282 11.7923 6.30831 11.8977C6.4138 12.0032 6.55687 12.0625 6.70606 12.0625H9.14356V18.4188C6.95939 18.2728 4.91743 17.2837 3.44891 15.6604C1.98038 14.037 1.20024 11.9064 1.27325 9.71861C1.34626 7.53079 2.2667 5.45698 3.84018 3.93513C5.41367 2.41328 7.51702 1.56252 9.70606 1.56252C11.8951 1.56252 13.9985 2.41328 15.5719 3.93513C17.1454 5.45698 18.0659 7.53079 18.1389 9.71861C18.2119 11.9064 17.4317 14.037 15.9632 15.6604C14.4947 17.2837 12.4527 18.2728 10.2686 18.4188Z" fill="#5D5A5A"/>
</svg>
