<svg width="21" height="20" viewBox="0 0 21 20" fill="none" xmlns="http://www.w3.org/2000/svg">
<path d="M10.6552 5.84027C9.78955 5.84027 8.94335 6.09697 8.2236 6.57789C7.50384 7.05882 6.94286 7.74237 6.61159 8.54212C6.28032 9.34187 6.19365 10.2219 6.36253 11.0709C6.53141 11.9199 6.94825 12.6998 7.56036 13.3119C8.17246 13.924 8.95232 14.3408 9.80133 14.5097C10.6503 14.6786 11.5304 14.5919 12.3301 14.2606C13.1299 13.9294 13.8134 13.3684 14.2943 12.6486C14.7753 11.9289 15.032 11.0827 15.032 10.217C15.0304 9.05671 14.5688 7.94434 13.7484 7.12387C12.9279 6.30339 11.8155 5.84178 10.6552 5.84027ZM10.6552 13.452C10.0154 13.452 9.38992 13.2623 8.85793 12.9068C8.32593 12.5514 7.91129 12.0461 7.66645 11.455C7.4216 10.8639 7.35753 10.2135 7.48235 9.58592C7.60718 8.95839 7.91528 8.38197 8.3677 7.92955C8.82013 7.47713 9.39655 7.16902 10.0241 7.0442C10.6516 6.91938 11.3021 6.98344 11.8932 7.22829C12.4843 7.47314 12.9895 7.88778 13.345 8.41977C13.7005 8.95176 13.8902 9.57722 13.8902 10.217C13.8902 11.075 13.5494 11.8978 12.9427 12.5045C12.336 13.1112 11.5132 13.452 10.6552 13.452ZM15.2223 0.512039H6.08814C4.72593 0.51355 3.41996 1.05535 2.45673 2.01858C1.49351 2.9818 0.951706 4.28778 0.950195 5.64998V14.7841C0.951706 16.1463 1.49351 17.4523 2.45673 18.4155C3.41996 19.3787 4.72593 19.9205 6.08814 19.922H15.2223C16.5845 19.9205 17.8904 19.3787 18.8537 18.4155C19.8169 17.4523 20.3587 16.1463 20.3602 14.7841V5.64998C20.3587 4.28778 19.8169 2.9818 18.8537 2.01858C17.8904 1.05535 16.5845 0.51355 15.2223 0.512039ZM19.2184 14.7841C19.2184 15.844 18.7974 16.8604 18.048 17.6098C17.2985 18.3592 16.2821 18.7803 15.2223 18.7803H6.08814C5.02828 18.7803 4.01184 18.3592 3.26241 17.6098C2.51298 16.8604 2.09196 15.844 2.09196 14.7841V5.64998C2.09196 4.59013 2.51298 3.57369 3.26241 2.82426C4.01184 2.07483 5.02828 1.6538 6.08814 1.6538H15.2223C16.2821 1.6538 17.2985 2.07483 18.048 2.82426C18.7974 3.57369 19.2184 4.59013 19.2184 5.64998V14.7841ZM16.5543 5.26939C16.5543 5.45758 16.4985 5.64153 16.394 5.798C16.2894 5.95447 16.1408 6.07642 15.967 6.14844C15.7931 6.22045 15.6018 6.23929 15.4172 6.20258C15.2327 6.16587 15.0631 6.07525 14.93 5.94218C14.797 5.80912 14.7064 5.63958 14.6697 5.45502C14.6329 5.27045 14.6518 5.07914 14.7238 4.90528C14.7958 4.73142 14.9178 4.58282 15.0742 4.47827C15.2307 4.37372 15.4147 4.31792 15.6028 4.31792C15.8552 4.31792 16.0972 4.41817 16.2756 4.5966C16.4541 4.77504 16.5543 5.01705 16.5543 5.26939Z" fill="#F2CD96"/>
</svg>
