<svg width="110" height="58" viewBox="0 0 110 58" fill="none" xmlns="http://www.w3.org/2000/svg">
    <path d="M1.13815 35.6608L7.36656 35.693V40.2277H7.72154C8.36697 36.7865 10.0451 35.3392 13.0141 35.3392C17.6612 35.3392 19.5975 38.0086 19.5975 44.3122C19.5975 50.6158 17.6289 53.2852 13.0141 53.2852C10.0451 53.2852 8.04426 51.8057 7.39883 48.4288H7.07611L7.14066 57.8269H1.13815V35.6608ZM10.6905 48.8148C12.7559 48.8148 13.6595 47.5283 13.6595 44.3443C13.6595 41.1604 12.7559 39.8418 10.6905 39.8418C8.62515 39.8418 7.72154 41.1604 7.72154 44.3443C7.72154 47.5283 8.62515 48.8148 10.6905 48.8148Z"
          fill="#212020"/>
    <path d="M30.5517 53.7354C24.2264 53.7354 21.5156 50.9374 21.5156 44.473C21.5156 37.9443 24.2264 35.1784 30.5517 35.1784C36.8769 35.1784 39.5877 37.9443 39.5877 44.473C39.5877 50.9374 36.8769 53.7354 30.5517 53.7354ZM30.5517 49.1042C32.8429 49.1042 33.7788 47.6891 33.7788 44.473C33.7788 41.2247 32.8429 39.8096 30.5517 39.8096C28.2604 39.8096 27.3245 41.2247 27.3245 44.473C27.3245 47.6891 28.2604 49.1042 30.5517 49.1042Z"
          fill="#212020"/>
    <path d="M53.3031 42.4468C53.0449 40.678 52.2704 39.9383 50.7214 39.9383C48.4301 39.9383 47.4942 41.1282 47.4942 44.3765C47.4942 47.5926 48.4301 48.9434 50.7214 48.9434C52.2381 48.9434 53.0127 48.2037 53.3031 46.4348H59.112C58.6279 51.452 56.1753 53.5746 50.7214 53.5746C44.3962 53.5746 41.6853 50.8409 41.6853 44.3765C41.6853 37.8478 44.3962 35.307 50.7214 35.307C56.1753 35.307 58.6279 37.4297 59.112 42.4468H53.3031Z"
          fill="#212020"/>
    <path d="M61.3735 53.253V30.0969H67.6987V43.0901H69.0542L73.2172 35.693H80.3169L75.4762 42.9292L80.5106 53.253H73.2495L69.6673 44.3443H67.6987V53.253H61.3735Z"
          fill="#212020"/>
    <path d="M98.0348 47.7213C97.2925 52.063 94.0976 53.7354 89.3537 53.7354C83.6416 53.7354 80.4468 51.0339 80.4468 44.5051C80.4468 37.9764 83.0608 35.2106 89.2569 35.2106C95.453 35.2106 98.0993 37.9764 98.0993 44.5051V46.3383H86.3202C86.3202 48.8148 87.2883 49.9082 89.3537 49.9082C90.9673 49.9082 91.9032 49.1685 92.1936 47.7213H98.0348ZM92.2259 43.0579C92.2259 40.5172 91.3546 39.1342 89.2892 39.1342C87.2238 39.1342 86.3525 40.5172 86.3525 43.0579H92.2259Z"
          fill="#212020"/>
    <path d="M100.318 36.8829H97.1559V35.693H100.318V30.0326H106.192V35.693H110V36.8829H106.192V47.6248C106.192 48.3645 106.579 48.7183 107.386 48.7183C107.741 48.7183 108.354 48.6218 108.612 48.5253L109.516 52.9635C108.967 53.1244 107.902 53.4138 106.45 53.5103C102.061 53.7354 100.222 51.9022 100.318 48.2037V36.8829Z"
          fill="#212020"/>
    <path d="M36.2995 27.6699H41.7857C43.1733 27.6699 43.7542 27.3483 43.9801 25.8368H42.3988C40.4625 25.8368 38.1067 25.1614 37.429 21.9774L34.6859 8.69483H40.5916L43.6574 24.7111H44.0124L46.4328 8.69483H52.758L49.5308 25.1935C48.7563 29.3102 46.2714 32.6228 43.0765 32.6228H36.2995V27.6699Z"
          fill="#212020"/>
    <path d="M62.3167 26.6729C55.9914 26.6729 53.2806 23.8749 53.2806 17.4105C53.2806 10.8818 55.9914 8.11593 62.3167 8.11593C68.6419 8.11593 71.3527 10.8818 71.3527 17.4105C71.3527 23.8749 68.6419 26.6729 62.3167 26.6729ZM62.3167 22.0417C64.6079 22.0417 65.5438 20.6266 65.5438 17.4105C65.5438 14.1622 64.6079 12.7471 62.3167 12.7471C60.0254 12.7471 59.0895 14.1622 59.0895 17.4105C59.0895 20.6266 60.0254 22.0417 62.3167 22.0417Z"
          fill="#212020"/>
    <path d="M73.699 8.59835H79.9919V18.0537C79.9919 20.7553 80.7341 21.9131 82.4445 21.9131C84.1549 21.9131 84.8649 20.7553 84.8649 18.0537V8.59835H91.1579V26.1262H85.6394V22.0096H84.8972C84.284 25.1292 82.7027 26.48 79.9919 26.48C75.2803 26.48 73.699 23.9714 73.699 18.0537V8.59835Z"
          fill="#212020"/>
    <path d="M94.3361 26.1905V8.66267H100.145V12.2969H100.823C101.178 9.85263 102.404 8.4697 104.308 8.4697H105.954V12.7793H103.598C101.694 12.7793 100.339 14.0658 100.339 16.1241V26.1905H94.3361Z"
          fill="#212020"/>
    <path d="M0.81543 4.10205C0.81543 3.10506 1.20269 2.23671 1.94493 1.56132C2.68718 0.853774 3.62306 0.5 4.72029 0.5C5.78525 0.5 6.72113 0.853774 7.46337 1.56132C8.23789 2.23671 8.62515 3.10506 8.62515 4.10205C8.62515 5.09905 8.23789 5.9674 7.46337 6.67495C6.72113 7.35034 5.78525 7.70411 4.72029 7.70411C3.62306 7.70411 2.68718 7.35034 1.94493 6.67495C1.20269 5.9674 0.81543 5.09905 0.81543 4.10205ZM1.49313 26.5827V9.02272H7.75382V26.5827H1.49313Z"
          fill="#212020"/>
    <path d="M11.0753 9.02272H16.5937V13.1394H17.3359C17.9491 10.0197 19.5304 8.66894 22.2412 8.66894C26.9529 8.66894 28.5342 11.1775 28.5342 17.063V26.5506H22.2412V17.063C22.2412 14.3615 21.499 13.2358 19.7886 13.2358C18.0782 13.2358 17.3682 14.3615 17.3682 17.063V26.5506H11.0753V9.02272Z"
          fill="#212020"/>
</svg>
