<svg width="26" height="25" viewBox="0 0 26 25" fill="none" xmlns="http://www.w3.org/2000/svg">
<path d="M22.753 20.9415L17.8634 16.0528C19.2806 14.3514 19.9873 12.169 19.8365 9.9598C19.6856 7.75057 18.6889 5.68453 17.0536 4.19148C15.4182 2.69843 13.2703 1.89332 11.0565 1.94363C8.84265 1.99394 6.73346 2.8958 5.16766 4.46161C3.60186 6.02741 2.7 8.13659 2.64968 10.3504C2.59937 12.5642 3.40448 14.7122 4.89753 16.3475C6.39058 17.9828 8.45662 18.9796 10.6659 19.1304C12.8751 19.2812 15.0574 18.5745 16.7589 17.1573L21.6476 22.047C21.7201 22.1196 21.8063 22.1771 21.9012 22.2164C21.996 22.2557 22.0976 22.2759 22.2003 22.2759C22.3029 22.2759 22.4046 22.2557 22.4994 22.2164C22.5943 22.1771 22.6804 22.1196 22.753 22.047C22.8256 21.9744 22.8832 21.8882 22.9225 21.7934C22.9618 21.6985 22.982 21.5969 22.982 21.4942C22.982 21.3916 22.9618 21.2899 22.9225 21.1951C22.8832 21.1003 22.8256 21.0141 22.753 20.9415ZM4.23155 10.5567C4.23155 9.16609 4.64392 7.80667 5.41653 6.65039C6.18913 5.4941 7.28726 4.59289 8.57205 4.06071C9.85684 3.52853 11.2706 3.38929 12.6345 3.66059C13.9985 3.9319 15.2513 4.60156 16.2346 5.5849C17.218 6.56823 17.8876 7.82108 18.1589 9.18501C18.4302 10.5489 18.291 11.9627 17.7588 13.2475C17.2266 14.5323 16.3254 15.6304 15.1691 16.403C14.0129 17.1756 12.6534 17.588 11.2628 17.588C9.39863 17.5859 7.6114 16.8445 6.29323 15.5263C4.97507 14.2081 4.23361 12.4209 4.23155 10.5567Z" fill="#F4EEEB"/>
</svg>
