<svg width="20" height="19" viewBox="0 0 20 19" fill="none" xmlns="http://www.w3.org/2000/svg">
<path d="M19.0182 6.53208L10.0182 0.532084C9.92581 0.470412 9.81718 0.4375 9.70606 0.4375C9.59493 0.4375 9.4863 0.470412 9.39387 0.532084L0.393868 6.53208C0.316747 6.58354 0.253539 6.65326 0.209869 6.73504C0.166198 6.81682 0.143418 6.90812 0.143555 7.00083V16.7508C0.143555 17.0989 0.281836 17.4328 0.527978 17.6789C0.774119 17.9251 1.10796 18.0633 1.45606 18.0633H17.9561C18.3042 18.0633 18.638 17.9251 18.8841 17.6789C19.1303 17.4328 19.2686 17.0989 19.2686 16.7508V7.00083C19.2687 6.90812 19.2459 6.81682 19.2022 6.73504C19.1586 6.65326 19.0954 6.58354 19.0182 6.53208ZM7.09793 12.2508L1.26856 16.3665V8.09302L7.09793 12.2508ZM8.24824 12.8133H11.1639L17.0036 16.9383H2.40856L8.24824 12.8133ZM12.3142 12.2508L18.1436 8.09302V16.3665L12.3142 12.2508ZM9.70606 1.67677L17.7151 7.02052L11.162 11.6883H8.25012L1.69699 7.01677L9.70606 1.67677Z" fill="#5D5A5A"/>
</svg>
