<svg width="31" height="24" viewBox="0 0 31 24" fill="none" xmlns="http://www.w3.org/2000/svg">
<path d="M11.77 9.12331C11.7699 13.2219 10.7996 16.4306 8.85897 18.7495C6.89173 21.0684 4.14026 22.5919 0.604542 23.3199L0.604542 19.1135C3.28956 18.2776 5.09729 16.7677 6.02774 14.5836C6.55943 13.4241 6.7721 12.3051 6.66576 11.2265L0.405162 11.2265L0.405163 0.589151L11.77 0.589152L11.77 9.12331ZM30.6714 9.12331C30.6714 13.1679 29.7276 16.3632 27.8402 18.7091C25.9261 21.055 23.148 22.5919 19.506 23.3199L19.506 19.1135C22.2176 18.2507 24.0386 16.7677 24.9691 14.6644C25.4476 13.5589 25.647 12.4129 25.5672 11.2265L19.3066 11.2265L19.3066 0.589152L30.6714 0.589153L30.6714 9.12331Z" fill="#005779"/>
</svg>
