<svg width="84" height="18" viewBox="0 0 84 18" fill="none" xmlns="http://www.w3.org/2000/svg">
    <path d="M10.8615 4.8937H9.30856C9.21672 4.44702 9.056 4.05461 8.8264 3.71647C8.60097 3.37833 8.32545 3.09446 7.99984 2.86486C7.67839 2.63108 7.32147 2.45575 6.92906 2.33886C6.53665 2.22197 6.12754 2.16353 5.70173 2.16353C4.92526 2.16353 4.22185 2.35973 3.59149 2.75214C2.9653 3.14455 2.46644 3.72273 2.0949 4.48668C1.72754 5.25062 1.54386 6.18781 1.54386 7.29825C1.54386 8.40869 1.72754 9.34588 2.0949 10.1098C2.46644 10.8738 2.9653 11.4519 3.59149 11.8444C4.22185 12.2368 4.92526 12.433 5.70173 12.433C6.12754 12.433 6.53665 12.3745 6.92906 12.2576C7.32147 12.1408 7.67839 11.9675 7.99984 11.7379C8.32545 11.5041 8.60097 11.2182 8.8264 10.88C9.056 10.5377 9.21672 10.1453 9.30856 9.7028H10.8615C10.7446 10.3582 10.5317 10.9447 10.2228 11.4624C9.91388 11.98 9.52982 12.4204 9.07061 12.7836C8.61141 13.1427 8.09585 13.4161 7.52393 13.6039C6.95619 13.7918 6.34879 13.8857 5.70173 13.8857C4.608 13.8857 3.63532 13.6186 2.78371 13.0842C1.9321 12.5499 1.26208 11.7901 0.773653 10.8049C0.285228 9.81969 0.0410156 8.65081 0.0410156 7.29825C0.0410156 5.94569 0.285228 4.77681 0.773653 3.79161C1.26208 2.80641 1.9321 2.04664 2.78371 1.5123C3.63532 0.97795 4.608 0.710778 5.70173 0.710778C6.34879 0.710778 6.95619 0.804706 7.52393 0.992562C8.09585 1.18042 8.61141 1.45594 9.07061 1.81913C9.52982 2.17814 9.91388 2.61647 10.2228 3.13412C10.5317 3.64759 10.7446 4.23412 10.8615 4.8937Z"
          fill="#212020"/>
    <path d="M12.2889 13.7104V4.09218H13.7667V13.7104H12.2889ZM13.0403 2.48915C12.7523 2.48915 12.5039 2.39104 12.2952 2.19484C12.0906 1.99863 11.9883 1.76277 11.9883 1.48725C11.9883 1.21173 12.0906 0.975864 12.2952 0.779658C12.5039 0.583454 12.7523 0.485352 13.0403 0.485352C13.3284 0.485352 13.5747 0.583454 13.7792 0.779658C13.9879 0.975864 14.0923 1.21173 14.0923 1.48725C14.0923 1.76277 13.9879 1.99863 13.7792 2.19484C13.5747 2.39104 13.3284 2.48915 13.0403 2.48915Z"
          fill="#212020"/>
    <path d="M19.7746 4.09218V5.34455H14.7902V4.09218H19.7746ZM16.2429 1.78782H17.7207V10.9552C17.7207 11.3726 17.7813 11.6857 17.9023 11.8945C18.0276 12.099 18.1862 12.2368 18.3782 12.3077C18.5744 12.3745 18.7811 12.4079 18.9982 12.4079C19.161 12.4079 19.2946 12.3996 19.3989 12.3829C19.5033 12.362 19.5868 12.3453 19.6494 12.3328L19.95 13.6603C19.8498 13.6979 19.7099 13.7354 19.5304 13.773C19.3509 13.8148 19.1234 13.8356 18.8479 13.8356C18.4304 13.8356 18.0213 13.7459 17.6206 13.5664C17.224 13.3869 16.8942 13.1134 16.6312 12.7461C16.3724 12.3787 16.2429 11.9153 16.2429 11.3559V1.78782Z"
          fill="#212020"/>
    <path d="M22.0677 17.3172C21.8172 17.3172 21.5939 17.2963 21.3977 17.2546C21.2015 17.217 21.0658 17.1795 20.9907 17.1419L21.3664 15.8394C21.7254 15.9313 22.0427 15.9647 22.3182 15.9396C22.5937 15.9146 22.8379 15.7914 23.0508 15.5702C23.2679 15.3531 23.4662 15.0003 23.6457 14.5119L23.9212 13.7605L20.3645 4.09218H21.9675L24.6226 11.7567H24.7227L27.3778 4.09218H28.9808L24.8981 15.113C24.7144 15.6098 24.4869 16.021 24.2155 16.3466C23.9442 16.6764 23.629 16.9206 23.27 17.0793C22.9152 17.2379 22.5144 17.3172 22.0677 17.3172Z"
          fill="#212020"/>
    <path d="M38.0098 17.5176C37.2959 17.5176 36.6823 17.4258 36.1688 17.2421C35.6553 17.0626 35.2274 16.8246 34.8851 16.5282C34.547 16.236 34.2777 15.9229 34.0773 15.5889L35.2546 14.7624C35.3881 14.9377 35.5572 15.1381 35.7618 15.3635C35.9663 15.5931 36.246 15.7914 36.6009 15.9584C36.9599 16.1296 37.4295 16.2151 38.0098 16.2151C38.7862 16.2151 39.427 16.0273 39.9322 15.6516C40.4373 15.2759 40.6899 14.6872 40.6899 13.8857V11.932H40.5646C40.4561 12.1074 40.3016 12.3244 40.1012 12.5833C39.905 12.8379 39.6212 13.0654 39.2496 13.2658C38.8823 13.462 38.3855 13.5601 37.7593 13.5601C36.9828 13.5601 36.2857 13.3764 35.6678 13.0091C35.0542 12.6417 34.5678 12.1074 34.2088 11.406C33.854 10.7047 33.6766 9.85309 33.6766 8.85119C33.6766 7.86599 33.8498 7.00812 34.1963 6.27757C34.5428 5.54284 35.025 4.9751 35.6428 4.57434C36.2606 4.16941 36.9745 3.96694 37.7844 3.96694C38.4105 3.96694 38.9073 4.07131 39.2747 4.28004C39.6462 4.48459 39.9301 4.71837 40.1263 4.98136C40.3267 5.24019 40.4811 5.45309 40.5897 5.62007H40.7399V4.09218H42.1677V13.9859C42.1677 14.8125 41.9798 15.4846 41.6041 16.0022C41.2325 16.5241 40.7316 16.906 40.1012 17.1482C39.4751 17.3945 38.7779 17.5176 38.0098 17.5176ZM37.9597 12.2326C38.5525 12.2326 39.0534 12.0969 39.4625 11.8256C39.8716 11.5542 40.1826 11.1639 40.3955 10.6546C40.6084 10.1453 40.7149 9.53582 40.7149 8.82614C40.7149 8.13316 40.6105 7.52159 40.4018 6.99142C40.1931 6.46125 39.8842 6.04588 39.4751 5.74531C39.0659 5.44474 38.5608 5.29446 37.9597 5.29446C37.3335 5.29446 36.8117 5.45309 36.3942 5.77036C35.9809 6.08763 35.6699 6.51343 35.4612 7.04778C35.2566 7.58212 35.1544 8.17491 35.1544 8.82614C35.1544 9.49407 35.2587 10.0848 35.4675 10.5982C35.6804 11.1075 35.9935 11.5083 36.4067 11.8005C36.8242 12.0886 37.3418 12.2326 37.9597 12.2326Z"
          fill="#212020"/>
    <path d="M50.0526 9.77795V4.09218H51.5304V13.7104H50.0526V12.0823H49.9524C49.727 12.5707 49.3763 12.9861 48.9004 13.3284C48.4245 13.6666 47.8234 13.8356 47.097 13.8356C46.4958 13.8356 45.9615 13.7041 45.4939 13.4411C45.0264 13.174 44.659 12.7732 44.3919 12.2389C44.1247 11.7003 43.9911 11.022 43.9911 10.2038V4.09218H45.4689V10.1036C45.4689 10.8049 45.6651 11.3643 46.0575 11.7817C46.4541 12.1992 46.9592 12.4079 47.5729 12.4079C47.9403 12.4079 48.3139 12.314 48.6938 12.1261C49.0778 11.9383 49.3993 11.6502 49.6581 11.262C49.9211 10.8738 50.0526 10.3791 50.0526 9.77795Z"
          fill="#212020"/>
    <path d="M53.3554 13.7104V4.09218H54.8332V13.7104H53.3554ZM54.1068 2.48915C53.8188 2.48915 53.5704 2.39104 53.3617 2.19484C53.1571 1.99863 53.0548 1.76277 53.0548 1.48725C53.0548 1.21173 53.1571 0.975864 53.3617 0.779658C53.5704 0.583454 53.8188 0.485352 54.1068 0.485352C54.3949 0.485352 54.6412 0.583454 54.8457 0.779658C55.0544 0.975864 55.1588 1.21173 55.1588 1.48725C55.1588 1.76277 55.0544 1.99863 54.8457 2.19484C54.6412 2.39104 54.3949 2.48915 54.1068 2.48915Z"
          fill="#212020"/>
    <path d="M60.2901 13.9108C59.4886 13.9108 58.781 13.7083 58.1673 13.3034C57.5537 12.8943 57.0736 12.3182 56.7271 11.5751C56.3806 10.8279 56.2074 9.94493 56.2074 8.92633C56.2074 7.91609 56.3806 7.03943 56.7271 6.29635C57.0736 5.55328 57.5557 4.97928 58.1736 4.57434C58.7914 4.16941 59.5053 3.96694 60.3151 3.96694C60.9413 3.96694 61.436 4.07131 61.7992 4.28004C62.1666 4.48459 62.4463 4.71837 62.6383 4.98136C62.8345 5.24019 62.9869 5.45309 63.0954 5.62007H63.2206V0.88611H64.6984V13.7104H63.2707V12.2326H63.0954C62.9869 12.4079 62.8324 12.6292 62.632 12.8963C62.4316 13.1593 62.1457 13.3952 61.7741 13.6039C61.4026 13.8085 60.9079 13.9108 60.2901 13.9108ZM60.4905 12.5833C61.0833 12.5833 61.5842 12.4288 61.9933 12.1199C62.4024 11.8068 62.7134 11.3747 62.9263 10.8237C63.1392 10.2685 63.2457 9.62766 63.2457 8.90129C63.2457 8.18326 63.1413 7.55499 62.9326 7.01647C62.7239 6.47377 62.4149 6.05214 62.0058 5.75157C61.5967 5.44683 61.0916 5.29446 60.4905 5.29446C59.8643 5.29446 59.3425 5.45518 58.925 5.77662C58.5117 6.09389 58.2007 6.52596 57.992 7.07282C57.7874 7.61552 57.6852 8.22501 57.6852 8.90129C57.6852 9.58592 57.7895 10.2079 57.9982 10.7673C58.2112 11.3225 58.5242 11.765 58.9375 12.0948C59.355 12.4204 59.8726 12.5833 60.4905 12.5833Z"
          fill="#212020"/>
    <path d="M70.7612 13.9108C69.8344 13.9108 69.035 13.7062 68.3629 13.2971C67.6949 12.8838 67.1794 12.3077 66.8162 11.5688C66.4572 10.8258 66.2777 9.96163 66.2777 8.97643C66.2777 7.99123 66.4572 7.12292 66.8162 6.3715C67.1794 5.6159 67.6845 5.02728 68.3316 4.60565C68.9828 4.17985 69.7426 3.96694 70.6109 3.96694C71.1118 3.96694 71.6065 4.05043 72.0949 4.21742C72.5834 4.3844 73.028 4.65575 73.4287 5.03146C73.8295 5.403 74.1488 5.89559 74.3868 6.50926C74.6247 7.12292 74.7437 7.87852 74.7437 8.77605V9.40223H67.3297V8.12482H73.2409C73.2409 7.58212 73.1323 7.09787 72.9152 6.67206C72.7023 6.24626 72.3976 5.91021 72.001 5.66391C71.6086 5.41761 71.1452 5.29446 70.6109 5.29446C70.0223 5.29446 69.513 5.44057 69.083 5.73279C68.6572 6.02083 68.3295 6.39654 68.0999 6.85992C67.8703 7.3233 67.7555 7.82007 67.7555 8.35024V9.20186C67.7555 9.92823 67.8807 10.544 68.1312 11.0491C68.3858 11.5501 68.7386 11.932 69.1894 12.195C69.6403 12.4538 70.1642 12.5833 70.7612 12.5833C71.1494 12.5833 71.5001 12.529 71.8132 12.4204C72.1304 12.3077 72.4039 12.1408 72.6335 11.9195C72.8631 11.6941 73.0405 11.4144 73.1657 11.0804L74.5934 11.4812C74.4431 11.9654 74.1906 12.3912 73.8357 12.7586C73.4809 13.1218 73.0426 13.4056 72.5208 13.6102C71.9989 13.8106 71.4124 13.9108 70.7612 13.9108Z"
          fill="#212020"/>
    <path d="M82.9229 6.24626L81.5954 6.62197C81.5119 6.40072 81.3888 6.18573 81.226 5.977C81.0673 5.7641 80.8503 5.58876 80.5747 5.451C80.2992 5.31324 79.9465 5.24436 79.5165 5.24436C78.9279 5.24436 78.4374 5.38004 78.045 5.65138C77.6567 5.91856 77.4626 6.25878 77.4626 6.67206C77.4626 7.03943 77.5962 7.32956 77.8634 7.54246C78.1305 7.75537 78.548 7.93279 79.1157 8.07472L80.5434 8.42538C81.4034 8.63411 82.0442 8.95347 82.4658 9.38345C82.8875 9.80925 83.0983 10.3582 83.0983 11.0303C83.0983 11.5814 82.9396 12.074 82.6224 12.5081C82.3093 12.9423 81.8709 13.2846 81.3074 13.5351C80.7438 13.7855 80.0884 13.9108 79.3412 13.9108C78.3601 13.9108 77.5482 13.6979 76.9053 13.2721C76.2624 12.8463 75.8554 12.2242 75.6842 11.406L77.0869 11.0554C77.2205 11.573 77.473 11.9612 77.8446 12.2201C78.2203 12.4789 78.7108 12.6083 79.3161 12.6083C80.0049 12.6083 80.5518 12.4622 80.9567 12.17C81.3658 11.8736 81.5704 11.5187 81.5704 11.1055C81.5704 10.7715 81.4535 10.4918 81.2197 10.2664C80.9859 10.0368 80.6269 9.86561 80.1427 9.7529L78.5396 9.37719C77.6588 9.16846 77.0117 8.84493 76.5985 8.4066C76.1894 7.96409 75.9848 7.41096 75.9848 6.74721C75.9848 6.20451 76.1372 5.72444 76.4419 5.30698C76.7508 4.88952 77.1704 4.56182 77.7006 4.32387C78.2349 4.08592 78.8402 3.96694 79.5165 3.96694C80.4683 3.96694 81.2155 4.17567 81.7582 4.59313C82.3051 5.01059 82.6933 5.56163 82.9229 6.24626Z"
          fill="#212020"/>
</svg>
