<svg width="17" height="19" viewBox="0 0 17 19" fill="none" xmlns="http://www.w3.org/2000/svg">
<path d="M16.8388 16.8478L10.9701 7.62469L16.761 1.25438C16.892 1.10674 16.9595 0.913434 16.9489 0.716365C16.9383 0.519295 16.8504 0.334346 16.7044 0.201615C16.5583 0.0688843 16.3658 -0.00092985 16.1686 0.00730857C15.9715 0.015547 15.7855 0.101174 15.651 0.245625L10.1348 6.31312L6.33881 0.347813C6.27112 0.24127 6.17764 0.153535 6.06702 0.0927355C5.9564 0.0319361 5.83223 3.91221e-05 5.706 8.87202e-08H1.206C1.07153 -6.53095e-05 0.939507 0.0360256 0.823769 0.104494C0.70803 0.172962 0.612829 0.271288 0.548134 0.389177C0.483439 0.507066 0.45163 0.64018 0.456037 0.774582C0.460445 0.908984 0.500907 1.03973 0.573187 1.15313L6.44194 10.3753L0.650999 16.7503C0.583374 16.823 0.53084 16.9083 0.496441 17.0014C0.462042 17.0945 0.446462 17.1935 0.450605 17.2927C0.454748 17.3918 0.478531 17.4892 0.520576 17.5791C0.562621 17.669 0.622091 17.7496 0.69554 17.8164C0.768989 17.8831 0.854956 17.9346 0.948458 17.9679C1.04196 18.0012 1.14114 18.0156 1.24024 18.0103C1.33935 18.0049 1.43641 17.98 1.5258 17.9369C1.61519 17.8937 1.69514 17.8333 1.761 17.7591L7.27725 11.6916L11.0732 17.6569C11.1414 17.7625 11.2352 17.8494 11.3457 17.9093C11.4563 17.9693 11.5802 18.0005 11.706 18H16.206C16.3403 18 16.4722 17.9638 16.5878 17.8954C16.7034 17.827 16.7985 17.7288 16.8631 17.611C16.9278 17.4933 16.9597 17.3604 16.9554 17.2261C16.9511 17.0918 16.9108 16.9612 16.8388 16.8478ZM12.1176 16.5L2.57194 1.5H5.29069L14.8401 16.5H12.1176Z" fill="#5D5A5A"/>
</svg>
