<svg width="23" height="17" viewBox="0 0 23 17" fill="none" xmlns="http://www.w3.org/2000/svg">
<path d="M14.9771 8.13964L10.3339 5.0442C10.2464 4.98585 10.1448 4.95235 10.0398 4.94728C9.93474 4.94221 9.83031 4.96577 9.73764 5.01543C9.64497 5.0651 9.56753 5.139 9.51359 5.22926C9.45965 5.31951 9.43124 5.42272 9.4314 5.52786V11.7187C9.43124 11.8239 9.45965 11.9271 9.51359 12.0173C9.56753 12.1076 9.64497 12.1815 9.73764 12.2312C9.83031 12.2808 9.93474 12.3044 10.0398 12.2993C10.1448 12.2943 10.2464 12.2608 10.3339 12.2024L14.9771 9.10696C15.0569 9.05402 15.1224 8.98215 15.1676 8.89776C15.2129 8.81336 15.2366 8.71908 15.2366 8.6233C15.2366 8.52752 15.2129 8.43323 15.1676 8.34884C15.1224 8.26445 15.0569 8.19258 14.9771 8.13964ZM10.5922 10.6344V6.61223L13.6083 8.6233L10.5922 10.6344ZM21.6584 3.01282C21.5744 2.68654 21.4141 2.38487 21.1908 2.13262C20.9675 1.88036 20.6875 1.68474 20.3738 1.56183C17.0733 0.283996 11.7791 0.30431 11.5595 0.30431C11.3399 0.30431 6.04576 0.283996 2.74138 1.56183C2.42841 1.68524 2.14916 1.88109 1.92653 2.13331C1.7039 2.38553 1.54424 2.68695 1.46065 3.01282C1.21398 3.9695 0.918945 5.72133 0.918945 8.6233C0.918945 11.5253 1.21398 13.2771 1.46065 14.2338C1.54463 14.5601 1.70487 14.8617 1.9282 15.114C2.15153 15.3662 2.43156 15.5619 2.74525 15.6848C6.04576 16.9626 11.339 16.9423 11.5595 16.9423H11.6282C12.2966 16.9423 17.2387 16.8997 20.3776 15.6848C20.6913 15.5619 20.9714 15.3662 21.1947 15.114C21.418 14.8617 21.5783 14.5601 21.6622 14.2338C21.9089 13.279 22.2039 11.532 22.2039 8.6233C22.2039 5.71455 21.9099 3.9695 21.6584 3.01282ZM20.5343 13.9436C20.4971 14.0923 20.425 14.23 20.3241 14.3453C20.2232 14.4607 20.0963 14.5505 19.9539 14.6072C16.8585 15.7999 11.6156 15.7815 11.5595 15.7815C11.5034 15.7815 6.26728 15.8008 3.16797 14.6043C3.02558 14.5476 2.8987 14.4578 2.79779 14.3424C2.69688 14.2271 2.62483 14.0894 2.58758 13.9407C2.35445 13.0517 2.07973 11.4073 2.07973 8.6233C2.07973 5.83934 2.35445 4.19489 2.58468 3.30302C2.62193 3.15433 2.69398 3.01663 2.79488 2.90126C2.89579 2.78589 3.02268 2.69615 3.16507 2.63943C6.1483 1.49025 11.1271 1.4651 11.5363 1.4651H11.5595C11.6117 1.4651 16.8517 1.44575 19.951 2.64233C20.0934 2.69905 20.2203 2.78879 20.3212 2.90416C20.4221 3.01954 20.4942 3.15724 20.5314 3.30592C20.7617 4.19489 21.0364 5.83934 21.0364 8.6262C21.0364 11.4131 20.7646 13.0517 20.5343 13.9436Z" fill="#F2CD96"/>
</svg>
